{"glyphs":{"0":{"ha":833,"x_min":0,"x_max":0,"o":"m 69 764 l 69 208 l 278 0 l 556 0 l 764 208 l 764 764 l 556 972 l 278 972 z m 486 833 l 556 764 l 208 347 l 208 694 l 347 833 z m 625 278 l 486 139 l 347 139 l 278 208 l 625 625 z "},"1":{"ha":694,"x_min":0,"x_max":0,"o":"m 313 972 l 139 799 l 139 694 l 278 694 l 278 139 l 69 139 l 69 0 l 625 0 l 625 139 l 417 139 l 417 972 z "},"2":{"ha":833,"x_min":0,"x_max":0,"o":"m 69 799 l 174 694 l 313 833 l 486 833 l 625 694 l 486 556 l 313 556 l 69 313 l 69 0 l 764 0 l 764 278 l 625 278 l 625 139 l 208 139 l 208 243 l 382 417 l 556 417 l 764 625 l 764 764 l 556 972 l 243 972 z "},"3":{"ha":833,"x_min":0,"x_max":0,"o":"m 174 694 l 313 833 l 486 833 l 625 694 l 486 556 l 347 556 l 347 417 l 486 417 l 625 278 l 486 139 l 313 139 l 174 278 l 69 174 l 243 0 l 556 0 l 764 208 l 764 347 l 625 486 l 764 625 l 764 764 l 556 972 l 243 972 l 69 799 z "},"4":{"ha":833,"x_min":0,"x_max":0,"o":"m 69 486 l 69 313 l 625 313 l 625 0 l 764 0 l 764 972 l 556 972 z m 625 451 l 243 451 l 625 833 z "},"5":{"ha":833,"x_min":0,"x_max":0,"o":"m 69 972 l 69 556 l 486 556 l 625 417 l 625 278 l 486 139 l 313 139 l 174 278 l 69 174 l 243 0 l 556 0 l 764 208 l 764 486 l 556 694 l 208 694 l 208 833 l 764 833 l 764 972 z "},"6":{"ha":833,"x_min":0,"x_max":0,"o":"m 69 729 l 69 208 l 278 0 l 556 0 l 764 208 l 764 347 l 556 556 l 208 556 l 208 660 l 382 833 l 556 833 l 625 764 l 729 868 l 625 972 l 313 972 z m 486 417 l 625 278 l 486 139 l 347 139 l 208 278 l 208 417 z "},"7":{"ha":833,"x_min":0,"x_max":0,"o":"m 69 694 l 208 694 l 208 833 l 625 833 l 625 660 l 347 382 l 347 0 l 486 0 l 486 313 l 764 590 l 764 972 l 69 972 z "},"8":{"ha":833,"x_min":0,"x_max":0,"o":"m 69 764 l 69 625 l 208 486 l 69 347 l 69 208 l 278 0 l 556 0 l 764 208 l 764 347 l 625 486 l 764 625 l 764 764 l 556 972 l 278 972 z m 486 833 l 625 694 l 486 556 l 347 556 l 208 694 l 347 833 z m 486 417 l 625 278 l 486 139 l 347 139 l 208 278 l 347 417 z "},"9":{"ha":833,"x_min":0,"x_max":0,"o":"m 764 243 l 764 764 l 556 972 l 278 972 l 69 764 l 69 625 l 278 417 l 625 417 l 625 313 l 451 139 l 278 139 l 208 208 l 104 104 l 208 0 l 521 0 z m 347 556 l 208 694 l 347 833 l 486 833 l 625 694 l 625 556 z "},"\u0000":{"ha":739,"x_min":0,"x_max":0,"o":"m 69 972 l 69 0 l 669 0 l 669 972 z m 139 69 l 139 903 l 600 903 l 600 69 z "},"!":{"ha":278,"x_min":0,"x_max":0,"o":"m 69 0 l 208 0 l 208 139 l 69 139 z m 69 278 l 208 278 l 208 972 l 69 972 z "},"\"":{"ha":556,"x_min":0,"x_max":0,"o":"m 347 694 l 486 694 l 486 972 l 347 972 z m 69 694 l 208 694 l 208 972 l 69 972 z "},"#":{"ha":833,"x_min":0,"x_max":0,"o":"m 208 694 l 69 694 l 69 556 l 208 556 l 208 417 l 69 417 l 69 278 l 208 278 l 208 0 l 347 0 l 347 278 l 486 278 l 486 0 l 625 0 l 625 278 l 764 278 l 764 417 l 625 417 l 625 556 l 764 556 l 764 694 l 625 694 l 625 972 l 486 972 l 486 694 l 347 694 l 347 972 l 208 972 z m 486 556 l 486 417 l 347 417 l 347 556 z "},"$":{"ha":833,"x_min":0,"x_max":0,"o":"m 486 833 l 486 972 l 347 972 l 347 833 l 278 833 l 69 625 l 243 417 l 486 417 l 556 347 l 486 278 l 104 278 l 104 139 l 347 139 l 347 0 l 486 0 l 486 139 l 556 139 l 764 347 l 590 556 l 347 556 l 278 625 l 347 694 l 694 694 l 694 833 z "},"%":{"ha":833,"x_min":0,"x_max":0,"o":"m 625 0 l 764 0 l 764 278 l 625 278 z m 625 799 l 69 243 l 69 0 l 208 0 l 208 174 l 764 729 l 764 972 l 625 972 z m 69 694 l 208 694 l 208 972 l 69 972 z "},"&":{"ha":833,"x_min":0,"x_max":0,"o":"m 208 833 l 208 694 l 347 556 l 278 556 l 69 347 l 69 208 l 278 0 l 417 0 l 486 69 l 590 69 l 660 0 l 764 104 l 590 278 l 764 451 l 660 556 l 556 451 l 486 451 l 486 556 l 625 694 l 625 833 l 486 972 l 347 972 z m 486 764 l 417 694 l 347 764 l 417 833 z m 486 278 l 347 139 l 208 278 l 347 417 z "},"'":{"ha":278,"x_min":0,"x_max":0,"o":"m 69 694 l 208 694 l 208 972 l 69 972 z "},"(":{"ha":521,"x_min":0,"x_max":0,"o":"m 69 694 l 69 278 l 347 0 l 451 104 l 208 347 l 208 625 l 451 868 l 347 972 z "},")":{"ha":521,"x_min":0,"x_max":0,"o":"m 69 868 l 313 625 l 313 347 l 69 104 l 174 0 l 451 278 l 451 694 l 174 972 z "},"*":{"ha":556,"x_min":0,"x_max":0,"o":"m 69 868 l 174 764 l 69 660 l 174 556 l 278 660 l 382 556 l 486 660 l 382 764 l 486 868 l 382 972 l 278 868 l 174 972 z "},"+":{"ha":833,"x_min":0,"x_max":0,"o":"m 347 556 l 69 556 l 69 417 l 347 417 l 347 139 l 486 139 l 486 417 l 764 417 l 764 556 l 486 556 l 486 833 l 347 833 z "},",":{"ha":278,"x_min":0,"x_max":0,"o":"m 69 -139 l 208 -139 l 208 139 l 69 139 z "},"-":{"ha":833,"x_min":0,"x_max":0,"o":"m 69 417 l 764 417 l 764 556 l 69 556 z "},".":{"ha":278,"x_min":0,"x_max":0,"o":"m 69 139 l 69 0 l 208 0 l 208 139 z "},"/":{"ha":833,"x_min":0,"x_max":0,"o":"m 625 972 l 625 799 l 69 243 l 69 0 l 208 0 l 208 174 l 764 729 l 764 972 z "},":":{"ha":278,"x_min":0,"x_max":0,"o":"m 69 0 l 208 0 l 208 139 l 69 139 z m 69 556 l 208 556 l 208 694 l 69 694 z "},";":{"ha":278,"x_min":0,"x_max":0,"o":"m 69 139 l 69 -139 l 208 -139 l 208 139 z m 69 556 l 208 556 l 208 694 l 69 694 z "},"<":{"ha":729,"x_min":0,"x_max":0,"o":"m 69 486 l 556 0 l 660 104 l 278 486 l 660 868 l 556 972 z "},"=":{"ha":833,"x_min":0,"x_max":0,"o":"m 69 208 l 764 208 l 764 347 l 69 347 z m 69 625 l 764 625 l 764 764 l 69 764 z "},">":{"ha":729,"x_min":0,"x_max":0,"o":"m 69 868 l 451 486 l 69 104 l 174 0 l 660 486 l 174 972 z "},"?":{"ha":833,"x_min":0,"x_max":0,"o":"m 347 0 l 486 0 l 486 139 l 347 139 z m 174 660 l 347 833 l 486 833 l 625 694 l 486 556 l 347 556 l 347 278 l 486 278 l 486 417 l 556 417 l 764 625 l 764 764 l 556 972 l 278 972 l 69 764 z "},"@":{"ha":972,"x_min":0,"x_max":0,"o":"m 347 694 l 347 486 l 556 278 l 903 278 l 903 764 l 694 972 l 278 972 l 69 764 l 69 208 l 278 0 l 764 0 l 764 139 l 347 139 l 208 278 l 208 694 l 347 833 l 625 833 l 764 694 l 764 417 l 625 417 l 486 556 l 625 556 l 625 694 z "},"A":{"ha":833,"x_min":0,"x_max":0,"o":"m 69 764 l 69 0 l 208 0 l 208 417 l 625 417 l 625 0 l 764 0 l 764 764 l 556 972 l 278 972 z m 486 833 l 625 694 l 625 556 l 208 556 l 208 694 l 347 833 z "},"B":{"ha":833,"x_min":0,"x_max":0,"o":"m 69 0 l 590 0 l 764 174 l 764 382 l 660 486 l 764 590 l 764 764 l 556 972 l 69 972 z m 486 833 l 625 694 l 486 556 l 208 556 l 208 833 z m 486 417 l 625 278 l 486 139 l 208 139 l 208 417 z "},"C":{"ha":833,"x_min":0,"x_max":0,"o":"m 556 972 l 278 972 l 69 764 l 69 208 l 278 0 l 556 0 l 764 208 l 660 313 l 486 139 l 347 139 l 208 278 l 208 694 l 347 833 l 486 833 l 660 660 l 764 764 z "},"D":{"ha":833,"x_min":0,"x_max":0,"o":"m 69 0 l 556 0 l 764 208 l 764 764 l 556 972 l 69 972 z m 486 833 l 625 694 l 625 278 l 486 139 l 208 139 l 208 833 z "},"E":{"ha":764,"x_min":0,"x_max":0,"o":"m 69 0 l 694 0 l 694 139 l 208 139 l 208 556 l 486 556 l 486 694 l 208 694 l 208 833 l 694 833 l 694 972 l 69 972 z "},"F":{"ha":764,"x_min":0,"x_max":0,"o":"m 69 0 l 208 0 l 208 556 l 486 556 l 486 694 l 208 694 l 208 833 l 694 833 l 694 972 l 69 972 z "},"G":{"ha":833,"x_min":0,"x_max":0,"o":"m 278 972 l 69 764 l 69 208 l 278 0 l 556 0 l 764 208 l 764 694 l 486 694 l 486 556 l 625 556 l 625 243 l 521 139 l 347 139 l 208 278 l 208 694 l 347 833 l 764 833 l 764 972 z "},"H":{"ha":833,"x_min":0,"x_max":0,"o":"m 69 0 l 208 0 l 208 556 l 625 556 l 625 0 l 764 0 l 764 972 l 625 972 l 625 694 l 208 694 l 208 972 l 69 972 z "},"I":{"ha":556,"x_min":0,"x_max":0,"o":"m 69 833 l 208 833 l 208 139 l 69 139 l 69 0 l 486 0 l 486 139 l 347 139 l 347 833 l 486 833 l 486 972 l 69 972 z "},"J":{"ha":833,"x_min":0,"x_max":0,"o":"m 625 278 l 486 139 l 347 139 l 174 313 l 69 208 l 278 0 l 556 0 l 764 208 l 764 972 l 625 972 z "},"K":{"ha":833,"x_min":0,"x_max":0,"o":"m 69 0 l 208 0 l 208 556 l 382 556 l 625 313 l 625 0 l 764 0 l 764 382 l 521 625 l 764 868 l 660 972 l 382 694 l 208 694 l 208 972 l 69 972 z "},"L":{"ha":764,"x_min":0,"x_max":0,"o":"m 69 0 l 694 0 l 694 139 l 208 139 l 208 972 l 69 972 z "},"M":{"ha":833,"x_min":0,"x_max":0,"o":"m 208 0 l 208 729 l 417 521 l 625 729 l 625 0 l 764 0 l 764 972 l 660 972 l 417 729 l 174 972 l 69 972 l 69 0 z "},"N":{"ha":833,"x_min":0,"x_max":0,"o":"m 69 0 l 208 0 l 208 729 l 625 313 l 625 0 l 764 0 l 764 972 l 625 972 l 625 521 l 174 972 l 69 972 z "},"O":{"ha":833,"x_min":0,"x_max":0,"o":"m 69 764 l 69 208 l 278 0 l 556 0 l 764 208 l 764 764 l 556 972 l 278 972 z m 486 833 l 625 694 l 625 278 l 486 139 l 347 139 l 208 278 l 208 694 l 347 833 z "},"P":{"ha":833,"x_min":0,"x_max":0,"o":"m 69 0 l 208 0 l 208 417 l 556 417 l 764 625 l 764 764 l 556 972 l 69 972 z m 486 833 l 625 694 l 486 556 l 208 556 l 208 833 z "},"Q":{"ha":833,"x_min":0,"x_max":0,"o":"m 69 764 l 69 208 l 243 0 l 417 0 l 521 104 l 625 0 l 764 139 l 660 243 l 764 347 l 764 764 l 556 972 l 278 972 z m 486 833 l 625 694 l 625 417 l 347 139 l 208 278 l 208 694 l 347 833 z "},"R":{"ha":833,"x_min":0,"x_max":0,"o":"m 69 0 l 208 0 l 208 417 l 486 417 l 625 278 l 625 0 l 764 0 l 764 347 l 625 486 l 764 625 l 764 764 l 556 972 l 69 972 z m 486 833 l 625 694 l 486 556 l 208 556 l 208 833 z "},"S":{"ha":833,"x_min":0,"x_max":0,"o":"m 278 972 l 104 799 l 104 660 l 278 486 l 521 486 l 625 382 l 625 243 l 521 139 l 313 139 l 174 278 l 69 174 l 243 0 l 590 0 l 764 174 l 764 451 l 590 625 l 347 625 l 243 729 l 347 833 l 694 833 l 694 972 z "},"T":{"ha":833,"x_min":0,"x_max":0,"o":"m 69 833 l 347 833 l 347 0 l 486 0 l 486 833 l 764 833 l 764 972 l 69 972 z "},"U":{"ha":833,"x_min":0,"x_max":0,"o":"m 69 208 l 278 0 l 556 0 l 764 208 l 764 972 l 625 972 l 625 278 l 486 139 l 347 139 l 208 278 l 208 972 l 69 972 z "},"V":{"ha":833,"x_min":0,"x_max":0,"o":"m 69 347 l 417 0 l 764 347 l 764 972 l 625 972 l 625 417 l 417 208 l 208 417 l 208 972 l 69 972 z "},"W":{"ha":833,"x_min":0,"x_max":0,"o":"m 69 0 l 174 0 l 417 243 l 660 0 l 764 0 l 764 972 l 625 972 l 625 278 l 417 486 l 208 278 l 208 972 l 69 972 z "},"X":{"ha":833,"x_min":0,"x_max":0,"o":"m 69 799 l 313 556 l 69 313 l 69 0 l 208 0 l 208 208 l 417 417 l 625 208 l 625 0 l 764 0 l 764 313 l 521 556 l 764 799 l 764 972 l 625 972 l 625 903 l 417 694 l 208 903 l 208 972 l 69 972 z "},"Y":{"ha":833,"x_min":0,"x_max":0,"o":"m 69 868 l 347 590 l 347 0 l 486 0 l 486 590 l 764 868 l 660 972 l 417 729 l 174 972 z "},"Z":{"ha":833,"x_min":0,"x_max":0,"o":"m 69 833 l 625 833 l 69 278 l 69 0 l 764 0 l 764 139 l 208 139 l 208 208 l 764 764 l 764 972 l 69 972 z "},"[":{"ha":556,"x_min":0,"x_max":0,"o":"m 69 0 l 486 0 l 486 139 l 208 139 l 208 833 l 486 833 l 486 972 l 69 972 z "},"\\":{"ha":833,"x_min":0,"x_max":0,"o":"m 69 729 l 625 174 l 625 0 l 764 0 l 764 243 l 208 799 l 208 972 l 69 972 z "},"]":{"ha":556,"x_min":0,"x_max":0,"o":"m 69 833 l 347 833 l 347 139 l 69 139 l 69 0 l 486 0 l 486 972 l 69 972 z "},"^":{"ha":833,"x_min":0,"x_max":0,"o":"m 69 625 l 174 521 l 417 764 l 660 521 l 764 625 l 417 972 z "},"_":{"ha":833,"x_min":0,"x_max":0,"o":"m 69 -139 l 764 -139 l 764 0 l 69 0 z "},"`":{"ha":417,"x_min":0,"x_max":0,"o":"m 69 868 l 243 694 l 347 799 l 174 972 z "},"a":{"ha":868,"x_min":0,"x_max":0,"o":"m 174 556 l 521 556 l 660 417 l 208 417 l 69 278 l 69 139 l 208 0 l 799 0 l 799 521 l 625 694 l 174 694 z m 660 278 l 660 139 l 278 139 l 208 208 l 278 278 z "},"b":{"ha":833,"x_min":0,"x_max":0,"o":"m 69 0 l 556 0 l 764 208 l 764 486 l 556 694 l 313 694 l 208 590 l 208 972 l 69 972 z m 486 556 l 625 417 l 625 278 l 486 139 l 208 139 l 208 382 l 382 556 z "},"c":{"ha":833,"x_min":0,"x_max":0,"o":"m 660 243 l 556 139 l 347 139 l 208 278 l 208 417 l 347 556 l 556 556 l 660 451 l 764 556 l 625 694 l 278 694 l 69 486 l 69 208 l 278 0 l 625 0 l 764 139 z "},"d":{"ha":833,"x_min":0,"x_max":0,"o":"m 625 590 l 521 694 l 278 694 l 69 486 l 69 208 l 278 0 l 764 0 l 764 972 l 625 972 z m 451 556 l 625 382 l 625 139 l 347 139 l 208 278 l 208 417 l 347 556 z "},"e":{"ha":868,"x_min":0,"x_max":0,"o":"m 69 486 l 69 208 l 278 0 l 729 0 l 729 139 l 347 139 l 208 278 l 799 278 l 799 486 l 590 694 l 278 694 z m 521 556 l 660 417 l 208 417 l 347 556 z "},"f":{"ha":694,"x_min":0,"x_max":0,"o":"m 208 764 l 208 694 l 69 694 l 69 556 l 208 556 l 208 0 l 347 0 l 347 556 l 625 556 l 625 694 l 347 694 l 486 833 l 625 833 l 625 972 l 417 972 z "},"g":{"ha":833,"x_min":0,"x_max":0,"o":"m 69 486 l 69 347 l 278 139 l 625 139 l 486 0 l 69 0 l 69 -139 l 556 -139 l 764 69 l 764 694 l 278 694 z m 625 556 l 625 278 l 347 278 l 208 417 l 347 556 z "},"h":{"ha":833,"x_min":0,"x_max":0,"o":"m 69 972 l 69 0 l 208 0 l 208 347 l 382 556 l 486 556 l 625 417 l 625 0 l 764 0 l 764 486 l 556 694 l 313 694 l 208 590 l 208 972 z "},"i":{"ha":278,"x_min":0,"x_max":0,"o":"m 69 694 l 69 0 l 208 0 l 208 694 z m 208 972 l 69 972 l 69 833 l 208 833 z "},"j":{"ha":833,"x_min":0,"x_max":0,"o":"m 625 694 l 625 139 l 486 0 l 347 0 l 208 139 l 208 278 l 69 278 l 69 69 l 278 -139 l 556 -139 l 764 69 l 764 694 z m 625 972 l 625 833 l 764 833 l 764 972 z "},"k":{"ha":694,"x_min":0,"x_max":0,"o":"m 69 0 l 208 0 l 208 313 l 521 0 l 625 104 l 347 382 l 590 625 l 486 729 l 208 451 l 208 972 l 69 972 z "},"l":{"ha":417,"x_min":0,"x_max":0,"o":"m 69 174 l 243 0 l 347 104 l 208 243 l 208 972 l 69 972 z "},"m":{"ha":833,"x_min":0,"x_max":0,"o":"m 208 0 l 208 556 l 347 417 l 347 278 l 486 278 l 486 417 l 556 486 l 625 417 l 625 0 l 764 0 l 764 486 l 556 694 l 417 556 l 278 694 l 69 694 l 69 0 z "},"n":{"ha":833,"x_min":0,"x_max":0,"o":"m 208 0 l 208 556 l 486 556 l 625 417 l 625 0 l 764 0 l 764 486 l 556 694 l 69 694 l 69 0 z "},"o":{"ha":833,"x_min":0,"x_max":0,"o":"m 69 486 l 69 208 l 278 0 l 556 0 l 764 208 l 764 486 l 556 694 l 278 694 z m 486 556 l 625 417 l 625 278 l 486 139 l 347 139 l 208 278 l 208 417 l 347 556 z "},"p":{"ha":833,"x_min":0,"x_max":0,"o":"m 69 -139 l 208 -139 l 208 139 l 556 139 l 764 347 l 764 486 l 556 694 l 313 694 l 208 590 l 208 694 l 69 694 z m 486 556 l 625 417 l 486 278 l 208 278 l 208 382 l 382 556 z "},"q":{"ha":833,"x_min":0,"x_max":0,"o":"m 69 486 l 69 347 l 278 139 l 625 139 l 625 -139 l 764 -139 l 764 694 l 625 694 l 625 590 l 521 694 l 278 694 z m 451 556 l 625 382 l 625 278 l 347 278 l 208 417 l 347 556 z "},"r":{"ha":833,"x_min":0,"x_max":0,"o":"m 69 0 l 208 0 l 208 382 l 382 556 l 486 556 l 660 382 l 764 486 l 556 694 l 313 694 l 208 590 l 208 694 l 69 694 z "},"s":{"ha":833,"x_min":0,"x_max":0,"o":"m 278 694 l 69 486 l 278 278 l 486 278 l 556 208 l 486 139 l 69 139 l 69 0 l 556 0 l 764 208 l 556 417 l 347 417 l 278 486 l 347 556 l 694 556 l 694 694 z "},"t":{"ha":556,"x_min":0,"x_max":0,"o":"m 208 694 l 69 694 l 69 556 l 208 556 l 208 174 l 382 0 l 486 104 l 347 243 l 347 556 l 486 556 l 486 694 l 347 694 l 347 972 l 208 972 z "},"u":{"ha":868,"x_min":0,"x_max":0,"o":"m 69 208 l 278 0 l 799 0 l 799 694 l 660 694 l 660 139 l 347 139 l 208 278 l 208 694 l 69 694 z "},"v":{"ha":833,"x_min":0,"x_max":0,"o":"m 69 347 l 417 0 l 764 347 l 764 694 l 625 694 l 625 417 l 417 208 l 208 417 l 208 694 l 69 694 z "},"w":{"ha":833,"x_min":0,"x_max":0,"o":"m 69 208 l 278 0 l 764 0 l 764 694 l 625 694 l 625 139 l 486 139 l 486 417 l 347 417 l 347 139 l 208 278 l 208 694 l 69 694 z "},"x":{"ha":833,"x_min":0,"x_max":0,"o":"m 69 590 l 313 347 l 69 104 l 174 0 l 417 243 l 660 0 l 764 104 l 521 347 l 764 590 l 660 694 l 417 451 l 174 694 z "},"y":{"ha":833,"x_min":0,"x_max":0,"o":"m 69 347 l 278 139 l 625 139 l 486 0 l 139 0 l 139 -139 l 556 -139 l 764 69 l 764 694 l 625 694 l 625 278 l 347 278 l 208 417 l 208 694 l 69 694 z "},"z":{"ha":833,"x_min":0,"x_max":0,"o":"m 139 556 l 556 556 l 69 69 l 69 0 l 764 0 l 764 139 l 347 139 l 764 556 l 764 694 l 139 694 z "},"{":{"ha":590,"x_min":0,"x_max":0,"o":"m 243 799 l 243 660 l 69 486 l 243 313 l 243 174 l 417 0 l 521 104 l 382 243 l 382 382 l 278 486 l 382 590 l 382 729 l 521 868 l 417 972 z "},"|":{"ha":278,"x_min":0,"x_max":0,"o":"m 69 0 l 208 0 l 208 972 l 69 972 z "},"}":{"ha":590,"x_min":0,"x_max":0,"o":"m 69 868 l 208 729 l 208 590 l 313 486 l 208 382 l 208 243 l 69 104 l 174 0 l 347 174 l 347 313 l 521 486 l 347 660 l 347 799 l 174 972 z "},"~":{"ha":972,"x_min":0,"x_max":0,"o":"m 69 486 l 174 382 l 347 556 l 556 347 l 694 347 l 903 556 l 799 660 l 625 486 l 417 694 l 278 694 z "}," ":{"ha":556,"x_min":0,"x_max":0,"o":"m 0 0 z "},"ยก":{"ha":278,"x_min":0,"x_max":0,"o":"m 69 556 l 69 -139 l 208 -139 l 208 556 z m 208 833 l 69 833 l 69 694 l 208 694 z "},"ย":{"ha":69,"x_min":0,"x_max":0,"o":"m 0 0 z "}}}
